M48
;DRILL file {KiCad (5.0.2)-1} date 02/20/19 18:40:16
;FORMAT={-:-/ absolute / inch / decimal}
FMAT,2
INCH,TZ
T1C0.0157
T2C0.0236
T3C0.0295
T4C0.0315
T5C0.0394
T6C0.0433
T7C0.0472
T8C0.0630
%
G90
G05
T1
X2.446Y-0.854
X3.1102Y-0.8268
X3.1102Y-0.9055
X3.1102Y-0.9843
X3.1102Y-1.063
X3.189Y-0.8268
X3.189Y-0.9055
X3.189Y-0.9843
X3.189Y-1.063
X3.189Y-1.1417
X3.2677Y-0.8268
X3.2677Y-0.9055
X3.2677Y-0.9843
X3.2677Y-1.063
X3.2677Y-1.1417
X3.3071Y-1.3425
X3.335Y-1.77
X3.3465Y-0.8268
X3.3465Y-1.063
X3.3465Y-1.1417
X3.378Y-1.5335
X3.3858Y-1.2205
X3.4252Y-0.8268
X3.4252Y-1.1417
X3.4646Y-1.2205
X3.5039Y-0.8268
X3.5039Y-1.063
X3.5039Y-1.1417
X3.5433Y-1.2205
X3.5433Y-1.378
X3.5827Y-1.2992
X3.622Y-1.1417
X3.622Y-1.2205
X3.7697Y-1.5591
X4.3Y-1.2275
T2
X3.3277Y-2.0894
X3.4025Y-1.8925
T3
X3.7795Y-1.874
X3.7795Y-1.9398
X3.7795Y-2.0039
X1.5142Y-1.063
X1.5642Y-0.9843
X1.6142Y-1.063
X3.7795Y-1.6339
X3.7795Y-1.7035
X3.7795Y-1.7677
T4
X3.622Y-0.9449
X3.8189Y-0.9449
X2.9134Y-1.3142
X2.9134Y-1.6142
X3.0134Y-1.3142
X3.0134Y-1.6142
X3.1134Y-1.3142
X3.1134Y-1.6142
X3.2134Y-1.3142
X3.2134Y-1.6142
X4.0157Y-1.3386
X4.0157Y-1.4386
X4.0157Y-1.5386
X4.0157Y-1.6386
X4.3157Y-1.3386
X4.3157Y-1.4386
X4.3157Y-1.5386
X4.3157Y-1.6386
X4.0157Y-0.8268
X4.0157Y-0.9268
X4.0157Y-1.0268
X4.0157Y-1.1268
X4.3157Y-0.8268
X4.3157Y-0.9268
X4.3157Y-1.0268
X4.3157Y-1.1268
X2.9134Y-1.9047
X2.9134Y-2.2047
X3.0134Y-1.9047
X3.0134Y-2.2047
X3.1134Y-1.9047
X3.1134Y-2.2047
X3.2134Y-1.9047
X3.2134Y-2.2047
X2.5197Y-1.378
X2.5197Y-1.4567
X2.5197Y-1.5354
X2.5197Y-1.6142
X2.5197Y-1.6929
X2.5197Y-1.7717
X2.6772Y-1.378
X2.6772Y-1.4567
X2.6772Y-1.5354
X2.6772Y-1.6142
X2.6772Y-1.6929
X2.6772Y-1.7717
X3.9764Y-1.9291
X3.9764Y-2.0291
X3.9764Y-2.1291
X3.9764Y-2.2291
X4.2764Y-1.9291
X4.2764Y-2.0291
X4.2764Y-2.1291
X4.2764Y-2.2291
T5
X0.9843Y-1.5354
X2.2835Y-1.7323
X2.268Y-1.498
X1.2598Y-1.8504
X1.6535Y-1.8504
X0.9843Y-1.811
T6
X2.7559Y-0.8661
X2.7559Y-0.9661
X2.7559Y-1.0661
T7
X0.9252Y-1.063
X1.2205Y-1.063
X2.0472Y-1.9488
X2.0472Y-2.2441
T8
X1.811Y-1.1417
X2.311Y-1.1417
T0
M30
